<svg width="64" height="64" viewBox="0 0 64 64" xmlns="http://www.w3.org/2000/svg">
  <defs>
    <linearGradient id="rabbyBg" x1="0" y1="0" x2="1" y2="1">
      <stop offset="0" stop-color="#9AB8FF"/>
      <stop offset="1" stop-color="#5A6DFF"/>
    </linearGradient>
  </defs>
  <rect width="64" height="64" rx="16" fill="url(#rabbyBg)"/>
  <path d="M22 19c2.5 0 4 2.02 4 4.5V28h2v-4.5c0-2.48 1.5-4.5 4-4.5s4 2.02 4 4.5V28h2v-4.5c0-2.48 1.5-4.5 4-4.5s4 2.02 4 4.5V32c0 10.49-8.51 19-19 19S13 42.49 13 32v-8.5c0-2.48 1.5-4.5 4-4.5s4 2.02 4 4.5V28h1v-4.5c0-2.48 1.5-4.5 4-4.5Z" fill="#fff"/>
  <circle cx="26.5" cy="34" r="2.5" fill="#5A6DFF"/>
  <circle cx="37.5" cy="34" r="2.5" fill="#5A6DFF"/>
</svg>
