<svg xmlns="http://www.w3.org/2000/svg" width="20" height="20" viewBox="0 0 20 20" fill="none" class="w-4 h-4 text-theme-black"><path d="M15.1521 3.59225C14.9655 3.41147 14.716 3.31039 14.4562 3.31039H5.80311C5.25083 3.31039 4.80312 3.7581 4.80311 4.31037L4.80293 16.2374H3.28105C3.00491 16.2374 2.78105 16.0135 2.78105 15.7374V2C2.78105 1.72386 3.00491 1.5 3.28105 1.5H13.668C13.9442 1.5 14.168 1.72386 14.168 2V2.5H15.9858V1C15.9858 0.447715 15.5381 0 14.9858 0H2.32324C1.77096 0 1.32324 0.447715 1.32324 1V16.7966C1.32324 17.3489 1.77096 17.7966 2.32324 17.7966H4.80293V18.9955C4.80293 19.5478 5.25064 19.9955 5.80293 19.9955H18.1419C18.6942 19.9955 19.1419 19.5478 19.1419 18.9955V7.88194C19.1419 7.61127 19.0322 7.35216 18.8378 7.1638L15.1521 3.59225ZM14.3748 5.13345L17.1731 7.80938H14.8748C14.5987 7.80938 14.3748 7.58552 14.3748 7.30938V5.13345ZM6.96334 18.5C6.6872 18.5 6.46334 18.2761 6.46334 18V5.31657C6.46334 5.04043 6.6872 4.81657 6.96334 4.81657H12.9998V8.26109C12.9998 8.81341 13.4476 9.26114 13.9999 9.26109L17.4277 9.26079V18C17.4277 18.2761 17.2038 18.5 16.9277 18.5H6.96334Z" fill="currentColor"></path></svg>