<svg width="19" height="13" viewBox="0 0 19 13" fill="none" xmlns="http://www.w3.org/2000/svg" class="w-4 h-4 text-theme-black"><path d="M9.16667 1.66667C10.6989 1.66157 12.2016 2.08899 13.5018 2.89977C14.802 3.71056 15.847 4.8718 16.5167 6.25C15.1417 9.05833 12.3333 10.8333 9.16667 10.8333C6 10.8333 3.19167 9.05833 1.81667 6.25C2.48635 4.8718 3.53136 3.71056 4.83157 2.89977C6.13177 2.08899 7.63439 1.66157 9.16667 1.66667ZM9.16667 0C5 0 1.44167 2.59167 0 6.25C1.44167 9.90833 5 12.5 9.16667 12.5C13.3333 12.5 16.8917 9.90833 18.3333 6.25C16.8917 2.59167 13.3333 0 9.16667 0ZM9.16667 4.16667C9.7192 4.16667 10.2491 4.38616 10.6398 4.77686C11.0305 5.16756 11.25 5.69747 11.25 6.25C11.25 6.80253 11.0305 7.33244 10.6398 7.72314C10.2491 8.11384 9.7192 8.33333 9.16667 8.33333C8.61413 8.33333 8.08423 8.11384 7.69353 7.72314C7.30283 7.33244 7.08333 6.80253 7.08333 6.25C7.08333 5.69747 7.30283 5.16756 7.69353 4.77686C8.08423 4.38616 8.61413 4.16667 9.16667 4.16667ZM9.16667 2.5C7.1 2.5 5.41667 4.18333 5.41667 6.25C5.41667 8.31667 7.1 10 9.16667 10C11.2333 10 12.9167 8.31667 12.9167 6.25C12.9167 4.18333 11.2333 2.5 9.16667 2.5Z" fill="black"></path></svg>