<svg xmlns="http://www.w3.org/2000/svg" width="100" height="100" viewBox="0 0 100 100" fill="none" class="right-[11px] bottom-[11px] absolute w-[100px] h-[100px]"><g clip-path="url(#clip0_5799_19829)"><path d="M59.7651 77.7448C62.8363 77.7448 65.3166 75.2663 65.3166 72.209C65.3166 69.1517 62.8363 66.6731 59.7651 66.6731C56.7177 66.6731 54.2373 69.1517 54.2373 72.209C54.2373 75.2663 56.7177 77.7448 59.7651 77.7448Z" fill="#666666" fill-opacity="0.1"></path><path d="M39.8712 77.9095C42.9423 77.9095 45.3993 75.431 45.3993 72.3736C45.3993 69.3162 42.9423 66.8378 39.8712 66.8378C36.8238 66.8378 34.3433 69.3162 34.3433 72.3736C34.3433 75.431 36.8238 77.9095 39.8712 77.9095Z" fill="#666666" fill-opacity="0.1"></path><path d="M27.7501 20.0753H40.9386C43.4203 26.7891 49.8963 45.8115 50.3689 46.8714C50.4871 46.3415 57.0103 25.6113 58.8539 20.1931H72.5623V67.484C70.8606 66.5416 69.1586 65.5995 67.3151 64.5392C66.0387 63.8917 64.8571 63.1847 63.5572 62.6547C63.439 53.4675 63.3209 44.3391 63.0373 34.7986C61.1938 40.2756 54.8358 59.5925 54.3158 60.1225H45.8309C45.8309 60.1225 37.5822 36.683 37.1804 35.623C37.0623 44.6336 36.9441 53.6442 36.6368 62.9493C31.5789 65.5405 28.5774 67.0128 27.6321 67.3661V20.0753H27.7501Z" fill="#666666" fill-opacity="0.1"></path><path d="M50.0118 7.95051C73.1506 7.95051 92.0587 26.7962 92.0587 49.9999C92.0587 73.2038 73.2214 92.0494 50.0118 92.0494C26.8022 92.0494 7.965 73.2038 7.965 49.9999C7.965 26.7962 26.8022 7.95051 50.0118 7.95051ZM50.0118 0C22.3825 0 0 22.3793 0 49.9999C0 77.6206 22.3825 100 50.0118 100C77.6175 100 100 77.6206 100 49.9999C100 22.3793 77.6175 0 50.0118 0Z" fill="#666666" fill-opacity="0.1"></path></g><defs><clipPath id="clip0_5799_19829"><rect width="100" height="100" fill="white"></rect></clipPath></defs></svg>