<svg xmlns="http://www.w3.org/2000/svg" width="20" height="20" viewBox="0 0 20 20" fill="none" class="w-4 h-4 text-theme-black"><g clip-path="url(#clip0_5226_10715)"><path d="M15.3111 9.13166L13.1998 7.01959L14.3774 5.84195L17.9113 9.37585L18.5 9.96477L14.3774 14.0874L13.1998 12.9088L15.3111 10.7975H6.46538V9.13185L15.3111 9.13166ZM11.4625 20.0004H3.13898C2.91961 20.0005 2.70236 19.9574 2.49966 19.8736C2.29695 19.7897 2.11277 19.6667 1.95763 19.5116C1.80244 19.3566 1.67934 19.1724 1.59537 18.9698C1.5114 18.7671 1.46821 18.5498 1.46826 18.3305V1.68165C1.46826 0.759725 2.21549 0.0117188 3.13898 0.0117188H11.4625V1.67736H3.97268C3.86333 1.67647 3.75488 1.69715 3.65353 1.7382C3.55218 1.77926 3.45991 1.83989 3.38201 1.91663C3.30411 1.99337 3.2421 2.08472 3.19953 2.18544C3.15696 2.28617 3.13466 2.39429 3.1339 2.50364V17.5085C3.1339 17.9557 3.50869 18.3346 3.97268 18.3346H11.4625V20.0004Z" fill="black"></path></g><defs><clipPath id="clip0_5226_10715"><rect width="20" height="20" fill="white"></rect></clipPath></defs></svg>