<svg width="24" height="24" viewBox="0 0 24 24" fill="none" xmlns="http://www.w3.org/2000/svg">
<g clipPath="url(#clip0_5226_10663)">
<path d="M14.3435 18.6592C15.0806 18.6592 15.6759 18.0643 15.6759 17.3306C15.6759 16.5968 15.0806 16.002 14.3435 16.002C13.6121 16.002 13.0168 16.5968 13.0168 17.3306C13.0168 18.0643 13.6121 18.6592 14.3435 18.6592Z" fill="#222222"/>
<path d="M9.56913 18.6982C10.3062 18.6982 10.8959 18.1034 10.8959 17.3696C10.8959 16.6358 10.3062 16.041 9.56913 16.041C8.83775 16.041 8.24243 16.6358 8.24243 17.3696C8.24243 18.1034 8.83775 18.6982 9.56913 18.6982Z" fill="#222222"/>
<path d="M6.65991 4.81836H9.82515C10.4208 6.42967 11.975 10.995 12.0884 11.2494C12.1168 11.1222 13.6824 6.147 14.1248 4.84663H17.4148V16.1964C17.0064 15.9703 16.598 15.7442 16.1555 15.4897C15.8492 15.3343 15.5656 15.1646 15.2536 15.0374C15.2253 12.8325 15.1969 10.6417 15.1288 8.35194C14.6864 9.66643 13.1605 14.3025 13.0357 14.4297H10.9993C10.9993 14.4297 9.01961 8.80421 8.92318 8.54981C8.89484 10.7123 8.86647 12.8749 8.79273 15.1081C7.57884 15.73 6.85847 16.0834 6.63159 16.1681V4.81836H6.65991Z" fill="#222222"/>
<path d="M12.0028 1.90812C17.5561 1.90812 22.0941 6.43109 22.0941 12C22.0941 17.5689 17.5731 22.0919 12.0028 22.0919C6.43253 22.0919 1.9116 17.5689 1.9116 12C1.9116 6.43109 6.43253 1.90812 12.0028 1.90812ZM12.0028 0C5.37179 0 0 5.37104 0 12C0 18.6289 5.37179 24 12.0028 24C18.6282 24 24 18.6289 24 12C24 5.37104 18.6282 0 12.0028 0Z" fill="#222222"/>
</g>
<defs>
<clipPath id="clip0_5226_10663">
<rect width="24" height="24" fill="white"/>
</clipPath>
</defs>
</svg>
